# 3ds Max Wavefront OBJ Exporter v0.97b - (c)2007 guruware
# File Created: 05.11.2016 19:07:24

mtllib Eye-Large.mtl

#
# object Sphere015
#

v  2.6341 -0.0992 0.1721
v  2.5341 1.0030 0.1874
v  2.5124 0.9295 0.5350
v  2.4861 0.7327 0.8376
v  2.4586 0.4362 1.0586
v  2.4330 0.0759 1.1715
v  2.4126 -0.3048 1.1626
v  2.3997 -0.6600 1.0329
v  2.3959 -0.9468 0.7982
v  2.4017 -1.1307 0.4868
v  2.4164 -1.1894 0.1361
v  2.4381 -1.1159 -0.2115
v  2.4643 -0.9191 -0.5140
v  2.4919 -0.6227 -0.7351
v  2.5174 -0.2624 -0.8480
v  2.5379 0.1183 -0.8390
v  2.5508 0.4735 -0.7094
v  2.5546 0.7603 -0.4747
v  2.5488 0.9442 -0.1632
v  2.0876 1.8461 0.8333
v  2.1285 1.9841 0.1801
v  2.0383 1.4762 1.4020
v  1.9865 0.9190 1.8174
v  1.9385 0.2419 2.0295
v  1.9001 -0.4736 2.0128
v  1.8759 -1.1411 1.7692
v  1.8688 -1.6802 1.3281
v  1.8796 -2.0257 0.7427
v  1.9072 -2.1361 0.0836
v  1.9481 -1.9981 -0.5696
v  1.9974 -1.6281 -1.1382
v  2.0491 -1.0710 -1.5536
v  2.0971 -0.3939 -1.7658
v  2.1356 0.3216 -1.7490
v  2.1598 0.9891 -1.5054
v  2.1669 1.5282 -1.0643
v  2.1560 1.8737 -0.4789
v  1.4111 2.5400 1.0312
v  1.4661 2.7260 0.1511
v  1.3446 2.0416 1.7973
v  1.2749 1.2910 2.3570
v  1.2102 0.3787 2.6428
v  1.1584 -0.5853 2.6202
v  1.1258 -1.4846 2.2920
v  1.1162 -2.2109 1.6977
v  1.1308 -2.6765 0.9090
v  1.1680 -2.8252 0.0211
v  1.2230 -2.6392 -0.8590
v  1.2895 -2.1408 -1.6251
v  1.3592 -1.3902 -2.1848
v  1.4239 -0.4779 -2.4706
v  1.4757 0.4861 -2.4481
v  1.5083 1.3854 -2.1198
v  1.5179 2.1117 -1.5255
v  1.5032 2.5773 -0.7369
v  0.5643 2.9275 1.1046
v  0.6270 3.1391 0.1038
v  0.4888 2.3608 1.9758
v  0.4095 1.5072 2.6123
v  0.3359 0.4698 2.9373
v  0.2770 -0.6264 2.9116
v  0.2399 -1.6491 2.5384
v  0.2290 -2.4749 1.8626
v  0.2457 -3.0044 0.9657
v  0.2879 -3.1735 -0.0440
v  0.3505 -2.9620 -1.0448
v  0.4260 -2.3953 -1.9160
v  0.5054 -1.5417 -2.5525
v  0.5789 -0.5043 -2.8775
v  0.6378 0.5919 -2.8518
v  0.6749 1.6146 -2.4786
v  0.6858 2.4405 -1.8028
v  0.6691 2.9699 -0.9059
v  -0.3505 2.9620 1.0448
v  -0.2879 3.1735 0.0440
v  -0.4260 2.3953 1.9160
v  -0.5054 1.5417 2.5525
v  -0.5789 0.5043 2.8775
v  -0.6378 -0.5919 2.8518
v  -0.6749 -1.6146 2.4786
v  -0.6858 -2.4405 1.8028
v  -0.6691 -2.9699 0.9059
v  -0.6270 -3.1391 -0.1038
v  -0.5643 -2.9275 -1.1046
v  -0.4888 -2.3608 -1.9758
v  -0.4095 -1.5072 -2.6123
v  -0.3359 -0.4698 -2.9373
v  -0.2770 0.6264 -2.9116
v  -0.2399 1.6491 -2.5384
v  -0.2290 2.4749 -1.8626
v  -0.2457 3.0044 -0.9657
v  -1.2230 2.6392 0.8590
v  -1.1680 2.8252 -0.0211
v  -1.2895 2.1408 1.6251
v  -1.3592 1.3902 2.1848
v  -1.4239 0.4779 2.4706
v  -1.4757 -0.4861 2.4481
v  -1.5083 -1.3854 2.1198
v  -1.5179 -2.1117 1.5255
v  -1.5032 -2.5773 0.7369
v  -1.4661 -2.7260 -0.1511
v  -1.4111 -2.5400 -1.0312
v  -1.3446 -2.0416 -1.7973
v  -1.2749 -1.2910 -2.3570
v  -1.2102 -0.3787 -2.6428
v  -1.1584 0.5853 -2.6202
v  -1.1258 1.4846 -2.2920
v  -1.1162 2.2109 -1.6977
v  -1.1308 2.6765 -0.9090
v  -1.9481 1.9981 0.5696
v  -1.9072 2.1361 -0.0836
v  -1.9974 1.6281 1.1382
v  -2.0491 1.0710 1.5536
v  -2.0971 0.3939 1.7658
v  -2.1356 -0.3216 1.7490
v  -2.1598 -0.9891 1.5054
v  -2.1669 -1.5282 1.0643
v  -2.1560 -1.8737 0.4789
v  -2.1285 -1.9841 -0.1801
v  -2.0876 -1.8461 -0.8333
v  -2.0383 -1.4762 -1.4020
v  -1.9865 -0.9190 -1.8174
v  -1.9385 -0.2419 -2.0295
v  -1.9001 0.4736 -2.0128
v  -1.8759 1.1411 -1.7692
v  -1.8688 1.6802 -1.3281
v  -1.8796 2.0257 -0.7427
v  -2.4381 1.1159 0.2115
v  -2.4164 1.1894 -0.1361
v  -2.4643 0.9191 0.5140
v  -2.4919 0.6227 0.7351
v  -2.5174 0.2624 0.8480
v  -2.5379 -0.1183 0.8390
v  -2.5508 -0.4735 0.7094
v  -2.5546 -0.7603 0.4747
v  -2.5488 -0.9442 0.1632
v  -2.5341 -1.0030 -0.1874
v  -2.5124 -0.9295 -0.5350
v  -2.4861 -0.7327 -0.8376
v  -2.4586 -0.4362 -1.0586
v  -2.4330 -0.0759 -1.1715
v  -2.4126 0.3048 -1.1626
v  -2.3997 0.6600 -1.0329
v  -2.3959 0.9468 -0.7982
v  -2.4017 1.1307 -0.4868
v  -2.6341 0.0992 -0.1721
# 146 vertices

vn 0.9975 -0.0544 0.0448
vn 0.9663 0.2528 0.0487
vn 0.9613 0.2336 0.1458
vn 0.9559 0.1801 0.2319
vn 0.9501 0.0974 0.2963
vn 0.9441 -0.0050 0.3296
vn 0.9383 -0.1134 0.3267
vn 0.9336 -0.2128 0.2881
vn 0.9310 -0.2908 0.2204
vn 0.9313 -0.3391 0.1329
vn 0.9347 -0.3535 0.0363
vn 0.9410 -0.3331 -0.0591
vn 0.9493 -0.2798 -0.1431
vn 0.9582 -0.1986 -0.2058
vn 0.9660 -0.0986 -0.2388
vn 0.9715 0.0080 -0.2370
vn 0.9738 0.1070 -0.2006
vn 0.9732 0.1861 -0.1348
vn 0.9705 0.2364 -0.0484
vn 0.8282 0.5078 0.2372
vn 0.8380 0.5436 0.0487
vn 0.8190 0.4057 0.4057
vn 0.8098 0.2461 0.5326
vn 0.7998 0.0473 0.5985
vn 0.7892 -0.1634 0.5920
vn 0.7798 -0.3556 0.5151
vn 0.7742 -0.5049 0.3817
vn 0.7746 -0.5960 0.2115
vn 0.7822 -0.6225 0.0247
vn 0.7964 -0.5834 -0.1592
vn 0.8151 -0.4819 -0.3215
vn 0.8346 -0.3268 -0.4434
vn 0.8508 -0.1345 -0.5080
vn 0.8603 0.0710 -0.5049
vn 0.8619 0.2620 -0.4341
vn 0.8570 0.4143 -0.3066
vn 0.8481 0.5112 -0.1392
vn 0.5779 0.7543 0.3116
vn 0.5942 0.8032 0.0426
vn 0.5631 0.6126 0.5546
vn 0.5492 0.3871 0.7406
vn 0.5352 0.1021 0.8385
vn 0.5218 -0.2016 0.8289
vn 0.5112 -0.4770 0.7149
vn 0.5067 -0.6877 0.5200
vn 0.5107 -0.8146 0.2751
vn 0.5244 -0.8514 0.0089
vn 0.5468 -0.7979 -0.2537
vn 0.5748 -0.6568 -0.4880
vn 0.6033 -0.4373 -0.6669
vn 0.6261 -0.1611 -0.7629
vn 0.6381 0.1353 -0.7580
vn 0.6378 0.4089 -0.6527
vn 0.6274 0.6239 -0.4660
vn 0.6115 0.7585 -0.2251
vn 0.2157 0.9130 0.3464
vn 0.2392 0.9705 0.0293
vn 0.1920 0.7486 0.6346
vn 0.1696 0.4848 0.8580
vn 0.1501 0.1477 0.9776
vn 0.1362 -0.2137 0.9674
vn 0.1300 -0.5414 0.8307
vn 0.1330 -0.7909 0.5974
vn 0.1449 -0.9410 0.3059
vn 0.1650 -0.9862 -0.0104
vn 0.1916 -0.9263 -0.3244
vn 0.2219 -0.7622 -0.6082
vn 0.2517 -0.5013 -0.8278
vn 0.2756 -0.1687 -0.9464
vn 0.2889 0.1891 -0.9385
vn 0.2895 0.5158 -0.8063
vn 0.2791 0.7674 -0.5772
vn 0.2611 0.9214 -0.2878
vn -0.1916 0.9263 0.3244
vn -0.1650 0.9862 0.0104
vn -0.2219 0.7622 0.6082
vn -0.2517 0.5013 0.8278
vn -0.2756 0.1687 0.9464
vn -0.2889 -0.1891 0.9385
vn -0.2895 -0.5158 0.8063
vn -0.2791 -0.7674 0.5772
vn -0.2611 -0.9214 0.2878
vn -0.2392 -0.9705 -0.0293
vn -0.2157 -0.9130 -0.3464
vn -0.1920 -0.7486 -0.6346
vn -0.1696 -0.4848 -0.8580
vn -0.1501 -0.1477 -0.9776
vn -0.1362 0.2137 -0.9674
vn -0.1300 0.5414 -0.8307
vn -0.1330 0.7909 -0.5974
vn -0.1449 0.9410 -0.3059
vn -0.5468 0.7979 0.2537
vn -0.5244 0.8514 -0.0089
vn -0.5748 0.6568 0.4880
vn -0.6033 0.4373 0.6669
vn -0.6261 0.1611 0.7629
vn -0.6381 -0.1353 0.7580
vn -0.6378 -0.4089 0.6527
vn -0.6274 -0.6239 0.4660
vn -0.6115 -0.7585 0.2251
vn -0.5942 -0.8032 -0.0426
vn -0.5779 -0.7543 -0.3116
vn -0.5631 -0.6126 -0.5546
vn -0.5492 -0.3871 -0.7406
vn -0.5352 -0.1021 -0.8385
vn -0.5218 0.2016 -0.8289
vn -0.5112 0.4770 -0.7149
vn -0.5067 0.6877 -0.5200
vn -0.5107 0.8146 -0.2751
vn -0.7964 0.5834 0.1592
vn -0.7822 0.6225 -0.0247
vn -0.8151 0.4819 0.3215
vn -0.8346 0.3268 0.4434
vn -0.8508 0.1345 0.5080
vn -0.8603 -0.0710 0.5049
vn -0.8619 -0.2620 0.4341
vn -0.8570 -0.4143 0.3066
vn -0.8481 -0.5112 0.1392
vn -0.8380 -0.5436 -0.0487
vn -0.8282 -0.5078 -0.2372
vn -0.8190 -0.4057 -0.4057
vn -0.8098 -0.2461 -0.5326
vn -0.7998 -0.0473 -0.5985
vn -0.7892 0.1634 -0.5920
vn -0.7798 0.3556 -0.5151
vn -0.7742 0.5049 -0.3817
vn -0.7746 0.5960 -0.2115
vn -0.9410 0.3331 0.0591
vn -0.9347 0.3535 -0.0363
vn -0.9493 0.2798 0.1431
vn -0.9582 0.1986 0.2058
vn -0.9660 0.0986 0.2388
vn -0.9715 -0.0080 0.2370
vn -0.9738 -0.1070 0.2006
vn -0.9732 -0.1861 0.1348
vn -0.9705 -0.2364 0.0484
vn -0.9663 -0.2528 -0.0487
vn -0.9613 -0.2336 -0.1458
vn -0.9559 -0.1801 -0.2319
vn -0.9501 -0.0974 -0.2963
vn -0.9441 0.0050 -0.3296
vn -0.9383 0.1134 -0.3267
vn -0.9336 0.2128 -0.2881
vn -0.9310 0.2908 -0.2204
vn -0.9313 0.3391 -0.1329
vn -0.9975 0.0544 -0.0448
# 146 vertex normals

vt 0.5181 0.8065 0.0000
vt 0.5180 0.8541 0.0000
vt 0.5030 0.8512 0.0000
vt 0.4898 0.8430 0.0000
vt 0.4799 0.8303 0.0000
vt 0.4747 0.8148 0.0000
vt 0.4747 0.7983 0.0000
vt 0.4799 0.7827 0.0000
vt 0.4898 0.7701 0.0000
vt 0.5030 0.7618 0.0000
vt 0.5180 0.7590 0.0000
vt 0.5331 0.7618 0.0000
vt 0.5463 0.7701 0.0000
vt 0.5562 0.7827 0.0000
vt 0.5614 0.7983 0.0000
vt 0.5614 0.8148 0.0000
vt 0.5562 0.8303 0.0000
vt 0.5463 0.8430 0.0000
vt 0.5331 0.8512 0.0000
vt 0.1340 0.3713 0.0000
vt 0.1771 0.4422 0.0000
vt 0.1459 0.4573 0.0000
vt 0.0942 0.3945 0.0000
vt 0.1772 0.3544 0.0000
vt 0.2126 0.4294 0.0000
vt 0.2230 0.3414 0.0000
vt 0.2514 0.4187 0.0000
vt 0.2705 0.3309 0.0000
vt 0.2925 0.4097 0.0000
vt 0.3187 0.3217 0.0000
vt 0.3348 0.4021 0.0000
vt 0.3663 0.3137 0.0000
vt 0.3776 0.3958 0.0000
vt 0.4125 0.3073 0.0000
vt 0.4201 0.3909 0.0000
vt 0.4570 0.3032 0.0000
vt 0.4621 0.3879 0.0000
vt 0.5006 0.3019 0.0000
vt 0.5038 0.3869 0.0000
vt 0.5440 0.3035 0.0000
vt 0.5454 0.3882 0.0000
vt 0.5886 0.3080 0.0000
vt 0.5873 0.3916 0.0000
vt 0.6347 0.3147 0.0000
vt 0.6296 0.3968 0.0000
vt 0.6822 0.3228 0.0000
vt 0.6720 0.4035 0.0000
vt 0.7303 0.3321 0.0000
vt 0.7139 0.4114 0.0000
vt 0.7777 0.3427 0.0000
vt 0.7545 0.4204 0.0000
vt 0.8232 0.3555 0.0000
vt 0.7928 0.4309 0.0000
vt 0.8662 0.3722 0.0000
vt 0.8277 0.4431 0.0000
vt 0.9057 0.3950 0.0000
vt 0.8580 0.4573 0.0000
vt 0.1039 0.3110 0.0000
vt 0.0538 0.3347 0.0000
vt 0.1537 0.2939 0.0000
vt 0.2043 0.2806 0.0000
vt 0.2560 0.2696 0.0000
vt 0.3079 0.2602 0.0000
vt 0.3588 0.2522 0.0000
vt 0.4076 0.2460 0.0000
vt 0.4544 0.2421 0.0000
vt 0.4998 0.2409 0.0000
vt 0.5451 0.2424 0.0000
vt 0.5918 0.2467 0.0000
vt 0.6406 0.2531 0.0000
vt 0.6914 0.2613 0.0000
vt 0.7432 0.2708 0.0000
vt 0.7950 0.2818 0.0000
vt 0.8456 0.2949 0.0000
vt 0.8954 0.3116 0.0000
vt 0.9455 0.3347 0.0000
vt 0.0827 0.2539 0.0000
vt 0.0258 0.2727 0.0000
vt 0.1366 0.2387 0.0000
vt 0.1904 0.2258 0.0000
vt 0.2449 0.2149 0.0000
vt 0.2993 0.2057 0.0000
vt 0.3526 0.1983 0.0000
vt 0.4037 0.1930 0.0000
vt 0.4524 0.1898 0.0000
vt 0.4996 0.1889 0.0000
vt 0.5469 0.1902 0.0000
vt 0.5955 0.1937 0.0000
vt 0.6465 0.1994 0.0000
vt 0.6997 0.2069 0.0000
vt 0.7541 0.2162 0.0000
vt 0.8086 0.2270 0.0000
vt 0.8625 0.2395 0.0000
vt 0.9164 0.2543 0.0000
vt 0.9735 0.2725 0.0000
vt 0.0683 0.1962 0.0000
vt 0.0098 0.2085 0.0000
vt 0.1237 0.1835 0.0000
vt 0.1791 0.1715 0.0000
vt 0.2353 0.1609 0.0000
vt 0.2915 0.1522 0.0000
vt 0.3466 0.1456 0.0000
vt 0.3996 0.1412 0.0000
vt 0.4503 0.1388 0.0000
vt 0.4996 0.1381 0.0000
vt 0.5489 0.1392 0.0000
vt 0.5996 0.1420 0.0000
vt 0.6525 0.1467 0.0000
vt 0.7076 0.1535 0.0000
vt 0.7637 0.1622 0.0000
vt 0.8199 0.1726 0.0000
vt 0.8754 0.1844 0.0000
vt 0.9309 0.1966 0.0000
vt 0.9893 0.2083 0.0000
vt 0.0583 0.1345 0.0000
vt 0.0043 0.1430 0.0000
vt 0.1131 0.1236 0.0000
vt 0.1690 0.1126 0.0000
vt 0.2260 0.1027 0.0000
vt 0.2831 0.0946 0.0000
vt 0.3395 0.0885 0.0000
vt 0.3942 0.0845 0.0000
vt 0.4473 0.0823 0.0000
vt 0.4993 0.0818 0.0000
vt 0.5513 0.0827 0.0000
vt 0.6044 0.0852 0.0000
vt 0.6591 0.0895 0.0000
vt 0.7154 0.0957 0.0000
vt 0.7726 0.1038 0.0000
vt 0.8295 0.1136 0.0000
vt 0.8856 0.1244 0.0000
vt 0.9405 0.1349 0.0000
vt 0.9949 0.1429 0.0000
vt 0.5339 0.6833 0.0000
vt 0.5502 0.7307 0.0000
vt 0.5060 0.7397 0.0000
vt 0.5066 0.6887 0.0000
vt 0.5578 0.6681 0.0000
vt 0.5885 0.7065 0.0000
vt 0.5755 0.6451 0.0000
vt 0.6168 0.6702 0.0000
vt 0.5849 0.6170 0.0000
vt 0.6318 0.6259 0.0000
vt 0.5847 0.5871 0.0000
vt 0.6317 0.5788 0.0000
vt 0.5751 0.5591 0.0000
vt 0.6167 0.5345 0.0000
vt 0.5572 0.5363 0.0000
vt 0.5884 0.4983 0.0000
vt 0.5331 0.5213 0.0000
vt 0.5502 0.4742 0.0000
vt 0.5057 0.5161 0.0000
vt 0.5060 0.4651 0.0000
vt 0.4784 0.5216 0.0000
vt 0.4619 0.4741 0.0000
vt 0.4545 0.5367 0.0000
vt 0.4235 0.4983 0.0000
vt 0.4368 0.5597 0.0000
vt 0.3953 0.5346 0.0000
vt 0.4274 0.5879 0.0000
vt 0.3802 0.5790 0.0000
vt 0.4275 0.6178 0.0000
vt 0.3803 0.6260 0.0000
vt 0.4372 0.6458 0.0000
vt 0.3953 0.6703 0.0000
vt 0.4551 0.6686 0.0000
vt 0.4236 0.7066 0.0000
vt 0.4792 0.6836 0.0000
vt 0.4619 0.7307 0.0000
vt 0.5197 0.6413 0.0000
vt 0.5067 0.6439 0.0000
vt 0.5311 0.6339 0.0000
vt 0.5395 0.6228 0.0000
vt 0.5439 0.6092 0.0000
vt 0.5437 0.5948 0.0000
vt 0.5390 0.5814 0.0000
vt 0.5304 0.5704 0.0000
vt 0.5189 0.5633 0.0000
vt 0.5058 0.5609 0.0000
vt 0.4928 0.5636 0.0000
vt 0.4814 0.5709 0.0000
vt 0.4730 0.5820 0.0000
vt 0.4686 0.5956 0.0000
vt 0.4687 0.6100 0.0000
vt 0.4734 0.6235 0.0000
vt 0.4821 0.6344 0.0000
vt 0.4936 0.6415 0.0000
vt 0.5063 0.6024 0.0000
# 188 texture coords

g Sphere015
usemtl wire_225143087
s 1
f 1/1/1 2/2/2 3/3/3 
f 1/1/1 3/3/3 4/4/4 
f 1/1/1 4/4/4 5/5/5 
f 1/1/1 5/5/5 6/6/6 
f 1/1/1 6/6/6 7/7/7 
f 1/1/1 7/7/7 8/8/8 
f 1/1/1 8/8/8 9/9/9 
f 1/1/1 9/9/9 10/10/10 
f 1/1/1 10/10/10 11/11/11 
f 1/1/1 11/11/11 12/12/12 
f 1/1/1 12/12/12 13/13/13 
f 1/1/1 13/13/13 14/14/14 
f 1/1/1 14/14/14 15/15/15 
f 1/1/1 15/15/15 16/16/16 
f 1/1/1 16/16/16 17/17/17 
f 1/1/1 17/17/17 18/18/18 
f 1/1/1 18/18/18 19/19/19 
f 1/1/1 19/19/19 2/2/2 
f 20/20/20 3/21/3 2/22/2 21/23/21 
f 22/24/22 4/25/4 3/21/3 20/20/20 
f 23/26/23 5/27/5 4/25/4 22/24/22 
f 24/28/24 6/29/6 5/27/5 23/26/23 
f 25/30/25 7/31/7 6/29/6 24/28/24 
f 26/32/26 8/33/8 7/31/7 25/30/25 
f 27/34/27 9/35/9 8/33/8 26/32/26 
f 28/36/28 10/37/10 9/35/9 27/34/27 
f 29/38/29 11/39/11 10/37/10 28/36/28 
f 30/40/30 12/41/12 11/39/11 29/38/29 
f 31/42/31 13/43/13 12/41/12 30/40/30 
f 32/44/32 14/45/14 13/43/13 31/42/31 
f 33/46/33 15/47/15 14/45/14 32/44/32 
f 34/48/34 16/49/16 15/47/15 33/46/33 
f 35/50/35 17/51/17 16/49/16 34/48/34 
f 36/52/36 18/53/18 17/51/17 35/50/35 
f 37/54/37 19/55/19 18/53/18 36/52/36 
f 21/56/21 2/57/2 19/55/19 37/54/37 
f 38/58/38 20/20/20 21/23/21 39/59/39 
f 40/60/40 22/24/22 20/20/20 38/58/38 
f 41/61/41 23/26/23 22/24/22 40/60/40 
f 42/62/42 24/28/24 23/26/23 41/61/41 
f 43/63/43 25/30/25 24/28/24 42/62/42 
f 44/64/44 26/32/26 25/30/25 43/63/43 
f 45/65/45 27/34/27 26/32/26 44/64/44 
f 46/66/46 28/36/28 27/34/27 45/65/45 
f 47/67/47 29/38/29 28/36/28 46/66/46 
f 48/68/48 30/40/30 29/38/29 47/67/47 
f 49/69/49 31/42/31 30/40/30 48/68/48 
f 50/70/50 32/44/32 31/42/31 49/69/49 
f 51/71/51 33/46/33 32/44/32 50/70/50 
f 52/72/52 34/48/34 33/46/33 51/71/51 
f 53/73/53 35/50/35 34/48/34 52/72/52 
f 54/74/54 36/52/36 35/50/35 53/73/53 
f 55/75/55 37/54/37 36/52/36 54/74/54 
f 39/76/39 21/56/21 37/54/37 55/75/55 
f 56/77/56 38/58/38 39/59/39 57/78/57 
f 58/79/58 40/60/40 38/58/38 56/77/56 
f 59/80/59 41/61/41 40/60/40 58/79/58 
f 60/81/60 42/62/42 41/61/41 59/80/59 
f 61/82/61 43/63/43 42/62/42 60/81/60 
f 62/83/62 44/64/44 43/63/43 61/82/61 
f 63/84/63 45/65/45 44/64/44 62/83/62 
f 64/85/64 46/66/46 45/65/45 63/84/63 
f 65/86/65 47/67/47 46/66/46 64/85/64 
f 66/87/66 48/68/48 47/67/47 65/86/65 
f 67/88/67 49/69/49 48/68/48 66/87/66 
f 68/89/68 50/70/50 49/69/49 67/88/67 
f 69/90/69 51/71/51 50/70/50 68/89/68 
f 70/91/70 52/72/52 51/71/51 69/90/69 
f 71/92/71 53/73/53 52/72/52 70/91/70 
f 72/93/72 54/74/54 53/73/53 71/92/71 
f 73/94/73 55/75/55 54/74/54 72/93/72 
f 57/95/57 39/76/39 55/75/55 73/94/73 
f 74/96/74 56/77/56 57/78/57 75/97/75 
f 76/98/76 58/79/58 56/77/56 74/96/74 
f 77/99/77 59/80/59 58/79/58 76/98/76 
f 78/100/78 60/81/60 59/80/59 77/99/77 
f 79/101/79 61/82/61 60/81/60 78/100/78 
f 80/102/80 62/83/62 61/82/61 79/101/79 
f 81/103/81 63/84/63 62/83/62 80/102/80 
f 82/104/82 64/85/64 63/84/63 81/103/81 
f 83/105/83 65/86/65 64/85/64 82/104/82 
f 84/106/84 66/87/66 65/86/65 83/105/83 
f 85/107/85 67/88/67 66/87/66 84/106/84 
f 86/108/86 68/89/68 67/88/67 85/107/85 
f 87/109/87 69/90/69 68/89/68 86/108/86 
f 88/110/88 70/91/70 69/90/69 87/109/87 
f 89/111/89 71/92/71 70/91/70 88/110/88 
f 90/112/90 72/93/72 71/92/71 89/111/89 
f 91/113/91 73/94/73 72/93/72 90/112/90 
f 75/114/75 57/95/57 73/94/73 91/113/91 
f 92/115/92 74/96/74 75/97/75 93/116/93 
f 94/117/94 76/98/76 74/96/74 92/115/92 
f 95/118/95 77/99/77 76/98/76 94/117/94 
f 96/119/96 78/100/78 77/99/77 95/118/95 
f 97/120/97 79/101/79 78/100/78 96/119/96 
f 98/121/98 80/102/80 79/101/79 97/120/97 
f 99/122/99 81/103/81 80/102/80 98/121/98 
f 100/123/100 82/104/82 81/103/81 99/122/99 
f 101/124/101 83/105/83 82/104/82 100/123/100 
f 102/125/102 84/106/84 83/105/83 101/124/101 
f 103/126/103 85/107/85 84/106/84 102/125/102 
f 104/127/104 86/108/86 85/107/85 103/126/103 
f 105/128/105 87/109/87 86/108/86 104/127/104 
f 106/129/106 88/110/88 87/109/87 105/128/105 
f 107/130/107 89/111/89 88/110/88 106/129/106 
f 108/131/108 90/112/90 89/111/89 107/130/107 
f 109/132/109 91/113/91 90/112/90 108/131/108 
f 93/133/93 75/114/75 91/113/91 109/132/109 
f 110/134/110 92/135/92 93/136/93 111/137/111 
f 112/138/112 94/139/94 92/135/92 110/134/110 
f 113/140/113 95/141/95 94/139/94 112/138/112 
f 114/142/114 96/143/96 95/141/95 113/140/113 
f 115/144/115 97/145/97 96/143/96 114/142/114 
f 116/146/116 98/147/98 97/145/97 115/144/115 
f 117/148/117 99/149/99 98/147/98 116/146/116 
f 118/150/118 100/151/100 99/149/99 117/148/117 
f 119/152/119 101/153/101 100/151/100 118/150/118 
f 120/154/120 102/155/102 101/153/101 119/152/119 
f 121/156/121 103/157/103 102/155/102 120/154/120 
f 122/158/122 104/159/104 103/157/103 121/156/121 
f 123/160/123 105/161/105 104/159/104 122/158/122 
f 124/162/124 106/163/106 105/161/105 123/160/123 
f 125/164/125 107/165/107 106/163/106 124/162/124 
f 126/166/126 108/167/108 107/165/107 125/164/125 
f 127/168/127 109/169/109 108/167/108 126/166/126 
f 111/137/111 93/136/93 109/169/109 127/168/127 
f 128/170/128 110/134/110 111/137/111 129/171/129 
f 130/172/130 112/138/112 110/134/110 128/170/128 
f 131/173/131 113/140/113 112/138/112 130/172/130 
f 132/174/132 114/142/114 113/140/113 131/173/131 
f 133/175/133 115/144/115 114/142/114 132/174/132 
f 134/176/134 116/146/116 115/144/115 133/175/133 
f 135/177/135 117/148/117 116/146/116 134/176/134 
f 136/178/136 118/150/118 117/148/117 135/177/135 
f 137/179/137 119/152/119 118/150/118 136/178/136 
f 138/180/138 120/154/120 119/152/119 137/179/137 
f 139/181/139 121/156/121 120/154/120 138/180/138 
f 140/182/140 122/158/122 121/156/121 139/181/139 
f 141/183/141 123/160/123 122/158/122 140/182/140 
f 142/184/142 124/162/124 123/160/123 141/183/141 
f 143/185/143 125/164/125 124/162/124 142/184/142 
f 144/186/144 126/166/126 125/164/125 143/185/143 
f 145/187/145 127/168/127 126/166/126 144/186/144 
f 129/171/129 111/137/111 127/168/127 145/187/145 
f 146/188/146 128/170/128 129/171/129 
f 146/188/146 130/172/130 128/170/128 
f 146/188/146 131/173/131 130/172/130 
f 146/188/146 132/174/132 131/173/131 
f 146/188/146 133/175/133 132/174/132 
f 146/188/146 134/176/134 133/175/133 
f 146/188/146 135/177/135 134/176/134 
f 146/188/146 136/178/136 135/177/135 
f 146/188/146 137/179/137 136/178/136 
f 146/188/146 138/180/138 137/179/137 
f 146/188/146 139/181/139 138/180/138 
f 146/188/146 140/182/140 139/181/139 
f 146/188/146 141/183/141 140/182/140 
f 146/188/146 142/184/142 141/183/141 
f 146/188/146 143/185/143 142/184/142 
f 146/188/146 144/186/144 143/185/143 
f 146/188/146 145/187/145 144/186/144 
f 146/188/146 129/171/129 145/187/145 
# 126 polygons - 36 triangles

